<?xml version="1.0" encoding="utf-8"?>
<!-- Generator: Adobe Illustrator 16.0.4, SVG Export Plug-In . SVG Version: 6.00 Build 0)  -->
<!DOCTYPE svg PUBLIC "-//W3C//DTD SVG 1.1//EN" "http://www.w3.org/Graphics/SVG/1.1/DTD/svg11.dtd">
<svg version="1.1" id="Truck" xmlns="http://www.w3.org/2000/svg" xmlns:ex="http://example.com/" xmlns:cc="http://creativecommons.org/ns#" xmlns:xlink="http://www.w3.org/1999/xlink" x="0px" y="0px" width="500" height="160" xml:space="preserve" resource="http://dbpedia.org/resource/Truck">
<g id="TowingVehicle" class="root" rel="ex:contains" resource="http://example.com/TowingVehicle">
	<g id="FrontTires" class="interactive" property="ex:contains" resource="http://example.com/FrontTires">
		<path id="p002" fill="#D8D8D8" d="M24,101v12c5,4,11,7,18.5,7s13-3,18.5-7v-12H24z"/>
		<g id="g00e">
			<circle id="c00e0" cx="42.5" cy="124.5" r="13"/>
			<circle id="c00e1" fill="#FFFFFF" cx="42.5" cy="124.5" r="6.5"/>
			<circle id="c00e2" fill="#6FB7FF" cx="42.5" cy="124.5" r="1.5"/>
		</g>
	</g>
	<g id="Exhaust" class="interactive" property="ex:contains" resource="http://example.com/Exhaust">
		<path id="p000" fill="#D8D8D8" stroke="#000000" d="M106,64.5h1c1.2,0,2.5,1.2,2.5,2.5v42c0,0.9-0.6,1.5-1.5,1.5h-2.5v2h3
			c1.6,0,3-1.1,3-3v-43c0-2.1-2.1-4-4-4H106"/>
		<rect id="r001" x="108.5" y="83.5" fill="#D8D8D8" stroke="#000000" width="4" height="19"/>
	</g>
	<g id="Engine" class="interactive" property="ex:contains" resource="http://example.com/Engine">
		<path id="p004" fill="#FFDFDF" stroke="#FF0000" d="M20.5,123.5v-23c0-3,3-6,8-6.5l29-1.5v17h48v14h-46c0-8.5-7.5-16-17-16
			c-8.5,0-17,7.5-17,16H20.5z"/>
	</g>
	<g id="DriversCabine" class="interactive" property="ex:contains" resource="http://example.com/DriversCabine">
		<path id="p005" stroke="#FF0000" d="M57.5,109.5v6.5"/>
		<path id="p00a" fill="#FFDFDF" d="M57,89h4.5l1-15H59L57,89z"/>
		<path id="p006" fill="#FFCECE" stroke="#FF0000" d="M57.5,89l2-15c0.3-2.5,3.2-5.5,7.5-5.5h38.5v41h-48V89z"/>
		<path id="p007" stroke="#FF0000" d="M82.5,109.4V68.5"/>
		<path id="p008" fill="#FFDFDF" stroke="#FF0000" d="M68.5,68.5c0-13.5,16-23,36-23v23H68.5z"/>
		<path id="p009" fill="#FFDFDF" d="M65.5,73.5c-1,0-1.9,1-2,2l-1,13.5h16V75.5c0-1-1-2-2-2H65.5z"/>
		<path id="p00b" fill="none" stroke="#FFB0B0" d="M65.5,73.5c-1,0-1.9,1-2,2l-1,13.5v16.5c0,1,1,2,2,2h12c1,0,2-1,2-2v-30
			c0-1-1-2-2-2H65.5z"/>
		<path id="p00c" fill="none" stroke="#FFB0B0" d="M87.5,79.5c-1,0-2,1-2,2v24c0,1,1,2,2,2h13c1,0,2-1,2-2v-24c0-1-1-2-2-2H87.5z"/>
	</g>
	
		<linearGradient id="FuelTank_1_" gradientUnits="userSpaceOnUse" x1="-185.4141" y1="337.1367" x2="-185.4141" y2="336.1367" gradientTransform="matrix(35 0 0 -11 6567 3820)">
		<stop  offset="0" style="stop-color:#A0A0A0"/>
		<stop  offset="0.45" style="stop-color:#CACACA"/>
		<stop  offset="0.55" style="stop-color:#CACACA"/>
		<stop  offset="1" style="stop-color:#A0A0A0"/>
	</linearGradient>
	<path id="FuelTank" class="interactive" fill="url(#FuelTank_1_)" stroke="#000000" d="M63.5,111.5H60h35h-3.5v11h-28V111.5z" property="ex:contains" resource="http://example.com/FuelTank" />
	<g id="RearTires" class="interactive" property="ex:contains" resource="http://example.com/RearTires">
		<rect id="r003" x="103.5" y="114.5" fill="#FFDFDF" stroke="#FF0000" width="84" height="9"/>
		<g id="u00f">
			<g id="g00e_1_">
				<circle id="c00e0_1_" cx="140.5" cy="124.5" r="13"/>
				<circle id="c00e1_1_" fill="#FFFFFF" cx="140.5" cy="124.5" r="6.5"/>
				<circle id="c00e2_1_" fill="#6FB7FF" cx="140.5" cy="124.5" r="1.5"/>
			</g>
		</g>
		<g id="u00g">
			<g id="g00e_2_">
				<circle id="c00e0_2_" cx="171.5" cy="124.5" r="13"/>
				<circle id="c00e1_2_" fill="#FFFFFF" cx="171.5" cy="124.5" r="6.5"/>
				<circle id="c00e2_2_" fill="#6FB7FF" cx="171.5" cy="124.5" r="1.5"/>
			</g>
		</g>
	</g>
</g>
<g id="Trailer" class="root" rel="ex:contains" resource="http://example.com/Trailer">
	<g id="Tires" class="interactive" property="ex:contains" src="http://semantic-graphics.herokuapp.com/svg/TruckMudguardSet.svg">
		<path id="p012" fill="#D8D8D8" stroke="#6FB7FF" stroke-width="3" d="M343,119h8v-14h-28v14h8l15-12h-18L343,119z"/>
		<g id="u016">
			<g id="g00e_3_">
				<circle id="c00e0_3_" cx="321.5" cy="124.5" r="13"/>
				<circle id="c00e1_3_" fill="#FFFFFF" cx="321.5" cy="124.5" r="6.5"/>
				<circle id="c00e2_3_" fill="#6FB7FF" cx="321.5" cy="124.5" r="1.5"/>
			</g>
		</g>
		<g id="u017">
			<g id="g00e_4_">
				<circle id="c00e0_4_" cx="352.5" cy="124.5" r="13"/>
				<circle id="c00e1_4_" fill="#FFFFFF" cx="352.5" cy="124.5" r="6.5"/>
				<circle id="c00e2_4_" fill="#6FB7FF" cx="352.5" cy="124.5" r="1.5"/>
			</g>
		</g>
	</g>
	<g id="Coupling" class="interactive" property="ex:contains" resource="http://example.com/Coupling">
		<path id="p010" fill="#6FB7FF" d="M165,112h-8.5v1.5h-2V112H147v-2h14.5l3.5,1.5V112z"/>
		<path id="p011" fill="none" stroke="#FF0000" d="M158,114.9c0-1-1-1.4-2.5-1.4s-2.5,0.4-2.5,1.4"/>
	</g>
	<rect id="CargoSpace" class="interactive" x="123.5" y="45.5" fill="#D8D8D8" stroke="#000000" width="266" height="64" property="ex:contains" resource="http://example.com/CargoSpace"/>
	<path id="LandingGear" class="interactive" fill="none" stroke="#000000" d="M192,109.5l8.5,9l17-9h-17v18H198h5" property="ex:contains" resource="http://example.com/LandingGear"/>
</g>
</svg>
